<svg width="58" height="40" viewBox="0 0 58 40" fill="none" xmlns="http://www.w3.org/2000/svg">
<path d="M32.9132 9.53044C33.4679 8.9792 33.9004 8.31745 34.1827 7.58816C34.4649 6.85888 34.5906 6.07838 34.5516 5.29735C34.5126 4.51632 34.3097 3.75223 33.9561 3.05472C33.6026 2.35721 33.1062 1.74188 32.4994 1.24868C31.8925 0.755493 31.1887 0.395476 30.4336 0.192018C29.6785 -0.0114409 28.8891 -0.05379 28.1166 0.0677211C27.3441 0.189232 26.6058 0.471886 25.9496 0.897322C25.2935 1.32276 24.7341 1.88146 24.308 2.53714C24.0435 2.80167 1.84845 30.159 1.64179 30.4731C1.08818 31.0243 0.656569 31.6856 0.374937 32.4143C0.0933053 33.143 -0.0320622 33.9227 0.00696126 34.7029C0.0459847 35.4831 0.248528 36.2464 0.601462 36.9434C0.954396 37.6403 1.44984 38.2553 2.05569 38.7485C2.66153 39.2416 3.36425 39.602 4.11829 39.8062C4.87233 40.0104 5.66087 40.0538 6.43278 39.9337C7.20469 39.8136 7.94275 39.5327 8.59912 39.109C9.25548 38.6854 9.8155 38.1286 10.2429 37.4747C10.5074 37.2225 32.7066 9.85282 32.9132 9.53044Z" fill="#4f46e5"/>
<path d="M45.7549 22.5168C46.3085 21.9656 46.7401 21.3043 47.0218 20.5756C47.3034 19.8469 47.4288 19.0672 47.3897 18.287C47.3507 17.5068 47.1482 16.7435 46.7952 16.0465C46.4423 15.3496 45.9468 14.7346 45.341 14.2414C44.7352 13.7483 44.0324 13.3879 43.2784 13.1837C42.5244 12.9795 41.7358 12.9361 40.9639 13.0562C40.192 13.1763 39.4539 13.4572 38.7976 13.8809C38.1412 14.3045 37.5812 14.8613 37.1538 15.5152C36.8893 15.7798 25.2297 30.1507 25.023 30.469C24.4694 31.0201 24.0378 31.6815 23.7562 32.4102C23.4745 33.1388 23.3492 33.9185 23.3882 34.6988C23.4272 35.479 23.6298 36.2423 23.9827 36.9392C24.3356 37.6361 24.8311 38.2511 25.4369 38.7443C26.0428 39.2375 26.7455 39.5978 27.4995 39.802C28.2536 40.0062 29.0421 40.0497 29.814 39.9296C30.5859 39.8095 31.324 39.5285 31.9803 39.1049C32.6367 38.6813 33.1967 38.1245 33.6241 37.4705C33.9052 37.2225 45.5482 22.835 45.7549 22.5168Z" fill="#4f46e5"/>
<path d="M57.9188 5.59982C57.9188 6.70257 57.5918 7.78056 56.9791 8.69747C56.3664 9.61437 55.4957 10.329 54.4768 10.751C53.458 11.173 52.337 11.2834 51.2554 11.0683C50.1738 10.8532 49.1803 10.3221 48.4006 9.54238C47.6208 8.76261 47.0898 7.76913 46.8747 6.68757C46.6595 5.60601 46.7699 4.48493 47.1919 3.46612C47.6139 2.44731 48.3286 1.57652 49.2455 0.963862C50.1624 0.351205 51.2404 0.0242004 52.3431 0.0242004C53.8219 0.0242004 55.2401 0.61163 56.2857 1.65726C57.3313 2.70289 57.9188 4.12107 57.9188 5.59982Z" fill="#4f46e5"/>
<path d="M11.1728 5.59983C11.1728 6.70223 10.8461 7.77989 10.2338 8.69662C9.62147 9.61334 8.75116 10.328 7.73283 10.7502C6.7145 11.1725 5.59385 11.2834 4.51252 11.0689C3.43118 10.8544 2.43768 10.3242 1.65759 9.5453C0.877499 8.76636 0.345822 7.77365 0.129753 6.69264C-0.0863164 5.61162 0.0229207 4.49081 0.443659 3.47185C0.864397 2.4529 1.57775 1.58153 2.49357 0.967884C3.40939 0.354234 4.48656 0.025841 5.58896 0.0242066C6.32186 0.02312 7.04778 0.166536 7.7252 0.44625C8.40262 0.725965 9.01825 1.13649 9.53687 1.65434C10.0555 2.17219 10.4669 2.78721 10.7476 3.46422C11.0284 4.14122 11.1728 4.86693 11.1728 5.59983Z" fill="#4f46e5"/>
</svg>
