<svg id="Layer_1" data-name="Layer 1" xmlns="http://www.w3.org/2000/svg" viewBox="0 0 2000 2000"><defs><style>.cls-1{font-size:148.73px;fill:#10182a;font-family:Gotham-Book, Gotham;letter-spacing:0.05em;}.cls-2{font-size:188.82px;font-family:Gotham-Medium, Gotham;font-weight:500;}.cls-2,.cls-5{fill:#364a9f;}.cls-3{letter-spacing:-0.11em;}.cls-4{letter-spacing:0em;}.cls-6{fill:#ea4a98;}.cls-7{stroke:#231f20;stroke-miterlimit:10;}</style></defs><text class="cls-1" transform="translate(918.51 1138.48)">SCHOOL</text><text class="cls-2" transform="translate(918.24 985.4)">PON<tspan class="cls-3" x="435.8" y="0">Y</tspan><tspan class="cls-4" x="550.23" y="0">A</tspan></text><path class="cls-5" d="M793.76,923.74c-39.91-.27-79.84-.46-119.74,0-46.83.52-81.63,21.56-103.56,63.06-9.32,17.62-18.81,35.24-26.73,53.5-10.42,24-28.81,33.93-53.84,34.06-13.17.07-26.35.16-39.52,0-12.19-.14-13-1.38-7.52-12.32,23.81-47.72,47.45-95.51,71.78-142.95,1.14-2.24,2.28-4.46,3.43-6.69a23.34,23.34,0,0,0,2.44-6.46l29.51-66s2.58-9.45,24-12.11h27.35c37.52,0,75-.13,112.56,0,46.46.19,86.74,36.51,92.43,82.6C807.59,920.81,803.46,923.8,793.76,923.74Z"/><path class="cls-6" d="M675.25,1043.72c-12,0-23.94-.29-35.89.06-24.94.75-44.51,11.45-57.54,32.86a295.94,295.94,0,0,0-15.63,29.58c-21,45.33-57.59,66.9-106.35,68.31-37.06,1.06-74.18.35-111.27.19-11.75-.06-12.7-1.88-7.48-12.57,6.29-12.89,12.77-25.69,19.23-38.5,9.69-19.23,25.76-27.17,46.83-26.87,29.9.43,59.81,1.17,89.69.51,29-.65,51-14.14,64.36-40.38,9.39-18.47,18.4-37.13,27.77-55.61,18.28-36,47-54.89,88.14-54.44,37.88.42,75.77.06,113.66.1,17.25,0,18.37,1.49,15,18.89-8.67,44.29-46.48,76.28-92.2,77.74-12.75.4-25.52.06-38.28.06Z"/><path d="M514.63,919.09l5.87-13.15a23.34,23.34,0,0,1-2.44,6.46C516.91,914.63,515.77,916.85,514.63,919.09Z"/><path d="M600.19,827.8H574A123,123,0,0,1,600.19,827.8Z"/><line class="cls-7" x1="872.51" y1="825.1" x2="872.51" y2="1173.1"/></svg>