<svg xmlns="http://www.w3.org/2000/svg" version="1.1" xmlns:xlink="http://www.w3.org/1999/xlink" xmlns:svgjs="http://svgjs.dev/svgjs" width="1000" height="1000" viewBox="0 0 1000 1000"><rect width="1000" height="1000" fill="#161414"></rect><g transform="matrix(0.7,0,0,0.7,149.57575757575756,440.3100529169133)"><svg viewBox="0 0 396 68" data-background-color="#161414" preserveAspectRatio="xMidYMid meet" height="171" width="1000" xmlns="http://www.w3.org/2000/svg" xmlns:xlink="http://www.w3.org/1999/xlink"><defs></defs><g id="tight-bounds" transform="matrix(1,0,0,1,0.2400000000000091,-0.09092396282460413)"><svg viewBox="0 0 395.52 68.18184792564924" height="68.18184792564924" width="395.52"><g><svg viewBox="0 0 395.52 68.18184792564924" height="68.18184792564924" width="395.52"><g><svg viewBox="0 0 490.4789061217688 84.55137082305124" height="68.18184792564924" width="395.52"><g><rect width="3.5052268838416727" height="42.487063838583246" x="82.27769263101176" y="21.032153492234" fill="#1bba6c" opacity="1" stroke-width="0" stroke="transparent" fill-opacity="1" class="rect-o-0" data-fill-palette-color="primary" rx="1%" id="o-0" data-palette-color="#1bba6c"></rect></g><g transform="matrix(1,0,0,1,94.9589061217688,21.13784270576281)"><svg viewBox="0 0 395.52 42.27568541152562" height="42.27568541152562" width="395.52"><g><svg viewBox="0 0 395.52 42.27568541152562" height="42.27568541152562" width="395.52"><g><svg viewBox="0 0 395.52 42.27568541152562" height="42.27568541152562" width="395.52"><g transform="matrix(1,0,0,1,0,0)"><svg width="395.52" viewBox="4.1999969482421875 -33.77000045776367 348.280029296875 34.22999954223633" height="42.27568541152562" data-palette-color="#1bba6c"><svg></svg><g class="undefined-text-0" data-fill-palette-color="primary" id="text-0"><path d="M14.43-27.48h-3.18v9.86h2.3c4.333 0 6.5-1.667 6.5-5v0c0-1.673-0.453-2.9-1.36-3.68-0.9-0.787-2.32-1.18-4.26-1.18zM4.2-33.27h10.61c4.047 0 7.12 0.873 9.22 2.62 2.093 1.747 3.14 4.37 3.14 7.87 0 3.507-1.117 6.21-3.35 8.11-2.227 1.893-5.413 2.84-9.56 2.84v0h-3.01v11.83h-7.05zM47.83-27.91v0c-2.8 0-4.913 0.943-6.34 2.83-1.42 1.893-2.13 4.693-2.13 8.4v0c0 7.48 2.81 11.22 8.43 11.22 5.62 0 8.43-3.74 8.43-11.22 0-7.487-2.797-11.23-8.39-11.23zM36.05-29.4v0c2.76-2.913 6.693-4.37 11.8-4.37 5.107 0 9.013 1.473 11.72 4.42 2.7 2.953 4.05 7.183 4.05 12.69 0 5.513-1.363 9.743-4.09 12.69-2.733 2.953-6.647 4.43-11.74 4.43-5.1 0-9.013-1.477-11.74-4.43-2.733-2.947-4.1-7.193-4.1-12.74 0-5.547 1.367-9.777 4.1-12.69zM93.68-33.27h6.35v33.27h-8.98l-14.46-25.15h-0.2c0.287 4.547 0.43 7.713 0.43 9.5v0 15.65h-6.29v-33.27h8.87l14.46 24.93h0.15c-0.22-4.167-0.33-7.227-0.33-9.18v0zM122.24-12.94v12.94h-7.02v-12.71l-11.02-20.56h7.63l6.9 13.7 6.95-13.7h7.59zM150.81-33.39l11.8 33.39h-7.6l-2.41-7.91h-12.13l-2.4 7.91h-7.61l11.73-33.39zM142.24-13.83v0h8.67l-3.77-12.16c-0.267-0.907-0.467-1.657-0.6-2.25v0c-0.46 1.82-1.893 6.623-4.3 14.41zM186.43-9.23v0c0 2.987-1.08 5.347-3.24 7.08-2.16 1.74-5.093 2.61-8.8 2.61-3.707 0-6.917-0.667-9.63-2v0-6.55c2.24 0.98 4.137 1.68 5.69 2.1 1.553 0.42 3.043 0.63 4.47 0.63 1.433 0 2.56-0.3 3.38-0.9 0.813-0.593 1.22-1.473 1.22-2.64v0c0-0.673-0.183-1.257-0.55-1.75-0.373-0.5-0.883-0.973-1.53-1.42-0.647-0.447-2.053-1.18-4.22-2.2-2.167-1.02-3.747-1.967-4.74-2.84v0c-2.227-1.92-3.34-4.33-3.34-7.23 0-2.9 0.993-5.193 2.98-6.88 1.993-1.687 4.75-2.53 8.27-2.53v0c2.98 0 6.273 0.783 9.88 2.35v0l-2.27 5.49c-1.773-0.727-3.247-1.233-4.42-1.52-1.18-0.287-2.373-0.43-3.58-0.43-1.207 0-2.167 0.303-2.88 0.91-0.72 0.607-1.08 1.427-1.08 2.46v0c0 1.18 0.6 2.173 1.8 2.98v0c0.587 0.407 2.077 1.173 4.47 2.3v0c3.087 1.48 5.21 2.97 6.37 4.47 1.167 1.5 1.75 3.337 1.75 5.51zM206.57-27.86v0c-2.647 0-4.703 0.997-6.17 2.99v0c-1.447 2-2.17 4.78-2.17 8.34v0c0 7.413 2.78 11.12 8.34 11.12v0c2.36 0 5.193-0.58 8.5-1.74v0 5.91c-2.713 1.133-5.763 1.7-9.15 1.7v0c-4.84 0-8.54-1.473-11.1-4.42-2.56-2.94-3.84-7.147-3.84-12.62v0c-0.053-5.193 1.347-9.37 4.2-12.53 2.86-3.16 6.657-4.707 11.39-4.64v0c3.24 0 6.493 0.783 9.76 2.35v0l-2.28 5.74c-3.08-1.467-5.573-2.2-7.48-2.2zM242.37-33.27h7.02v33.27h-7.02v-14.36h-13.17v14.36h-7.06v-33.27h7.06v13.05h13.17zM272.17-27.91v0c-2.8 0-4.91 0.943-6.33 2.83-1.427 1.893-2.14 4.693-2.14 8.4v0c0 7.48 2.81 11.22 8.43 11.22 5.62 0 8.43-3.74 8.43-11.22 0-7.487-2.797-11.23-8.39-11.23zM260.39-29.4v0c2.76-2.913 6.693-4.37 11.8-4.37 5.107 0 9.013 1.473 11.72 4.42 2.707 2.953 4.06 7.183 4.06 12.69 0 5.513-1.367 9.743-4.1 12.69-2.727 2.953-6.64 4.43-11.74 4.43-5.1 0-9.013-1.477-11.74-4.43-2.733-2.947-4.1-7.193-4.1-12.74 0-5.547 1.367-9.777 4.1-12.69zM309.25-27.91v0c-2.793 0-4.903 0.943-6.33 2.83-1.427 1.893-2.14 4.693-2.14 8.4v0c0 7.48 2.81 11.22 8.43 11.22 5.62 0 8.43-3.74 8.43-11.22 0-7.487-2.797-11.23-8.39-11.23zM297.47-29.4v0c2.767-2.913 6.703-4.37 11.81-4.37 5.107 0 9.01 1.473 11.71 4.42 2.707 2.953 4.06 7.183 4.06 12.69 0 5.513-1.363 9.743-4.09 12.69-2.733 2.953-6.65 4.43-11.75 4.43-5.093 0-9.007-1.477-11.74-4.43-2.727-2.947-4.09-7.193-4.09-12.74 0-5.547 1.363-9.777 4.09-12.69zM352.48-5.81v5.81h-20.53v-33.27h7.05v27.46z" data-fill-palette-color="primary" fill="#1bba6c" opacity="1"></path></g></svg></g></svg></g></svg></g></svg></g><g><svg viewBox="0 0 73.10170602409639 84.55137082305124" height="84.55137082305124" width="73.10170602409639"><g><svg xmlns="http://www.w3.org/2000/svg" xmlns:xlink="http://www.w3.org/1999/xlink" version="1.1" x="0" y="0" viewBox="9 1 83 96" enable-background="new 0 0 100 100" xml:space="preserve" height="84.55137082305124" width="73.10170602409639" class="icon-icon-0" data-fill-palette-color="accent" id="icon-0"><g fill="#cc2936" data-fill-palette-color="accent"><path fill="#cc2936" d="M71.3 10.01C57.831 10.01 50.55 1 50.55 1s-7.306 9.01-20.774 9.01C17.371 10.01 9 2.528 9 2.528v48.928C9.378 83.682 50.5 97 50.5 97S92 83.682 92 51.456V2.528C92 2.528 83.703 10.01 71.3 10.01z" data-fill-palette-color="accent"></path></g></svg></g></svg></g></svg></g></svg></g></svg><rect width="395.52" height="68.18184792564924" fill="none" stroke="none" visibility="hidden"></rect></g></svg></g></svg>